<svg width="24" height="29" viewBox="0 0 24 29" fill="none" xmlns="http://www.w3.org/2000/svg">
<path d="M0.684 8.38C0.684 6.076 1.704 4.204 3.744 2.764C5.784 1.324 8.508 0.603999 11.916 0.603999C13.956 0.603999 15.744 0.843998 17.28 1.324C18.816 1.78 19.992 2.416 20.808 3.232C22.44 4.84 23.256 6.688 23.256 8.776C23.256 10.864 22.416 12.616 20.736 14.032C19.08 15.424 16.956 16.12 14.364 16.12C14.076 16.12 13.644 16.096 13.068 16.048L13.392 13.42C16.584 13.42 18.18 11.92 18.18 8.92C18.18 7.528 17.592 6.352 16.416 5.392C15.192 4.384 13.368 3.88 10.944 3.88C8.52 3.88 6.6 4.504 5.184 5.752C4.344 6.472 3.924 7.252 3.924 8.092C3.924 9.676 4.872 10.576 6.768 10.792L6.336 13.456C4.68 13.384 3.324 12.856 2.268 11.872C1.212 10.888 0.684 9.724 0.684 8.38ZM13.356 5.752L11.772 16.048C14.82 17.512 16.344 19.672 16.344 22.528C16.344 24.616 15.792 26.092 14.688 26.956C13.608 27.796 12.3 28.216 10.764 28.216C9.228 28.216 8.028 27.82 7.164 27.028C6.3 26.236 5.868 25.168 5.868 23.824C5.868 23.512 5.88 23.272 5.904 23.104L8.064 6.436C9.312 5.836 10.368 5.536 11.232 5.536C12.096 5.536 12.804 5.608 13.356 5.752ZM11.808 24.94C12.384 24.94 12.876 24.736 13.284 24.328C13.716 23.92 13.932 23.236 13.932 22.276C13.932 20.572 13.116 19.228 11.484 18.244C11.1 21.052 10.908 22.744 10.908 23.32C10.908 23.872 10.992 24.28 11.16 24.544C11.352 24.808 11.568 24.94 11.808 24.94Z" fill="#641713"/>
</svg>
